<?xml version="1.0" standalone="no"?>
<!DOCTYPE svg PUBLIC "-//W3C//DTD SVG 20010904//EN"
 "http://www.w3.org/TR/2001/REC-SVG-20010904/DTD/svg10.dtd">
<svg version="1.0" xmlns="http://www.w3.org/2000/svg"
 width="232.000000pt" height="232.000000pt" viewBox="0 0 232.000000 232.000000"
 preserveAspectRatio="xMidYMid meet">
<metadata>
Created by potrace 1.11, written by Peter Selinger 2001-2013
</metadata>
<g transform="translate(0.000000,232.000000) scale(0.100000,-0.100000)"
fill="#000000" stroke="none">
<path d="M985 2295 c-107 -17 -236 -55 -228 -68 3 -6 1 -7 -6 -3 -18 12 -131
-42 -254 -121 -79 -51 -219 -181 -210 -196 3 -5 1 -7 -5 -3 -28 17 -184 -246
-231 -393 -37 -114 -59 -281 -45 -346 6 -27 7 -28 14 -10 4 12 17 69 29 128
26 132 64 254 101 327 15 30 36 71 46 90 27 55 87 140 135 194 24 27 43 53 41
58 -1 5 2 7 7 4 5 -4 15 0 23 7 7 7 32 27 55 44 23 17 39 34 35 39 -4 5 -3 6
2 2 4 -4 31 6 60 23 376 220 772 238 1124 53 46 -24 101 -58 123 -75 22 -17
44 -27 50 -23 7 4 9 3 6 -3 -4 -6 16 -30 44 -53 28 -24 78 -77 111 -119 34
-42 63 -78 67 -81 3 -3 14 -21 24 -40 34 -63 52 -95 58 -100 9 -8 79 -211 85
-245 2 -16 9 -54 14 -84 14 -75 12 -252 -2 -331 -6 -36 -12 -79 -12 -97 -1
-17 -4 -29 -7 -27 -3 2 -11 -16 -18 -39 -12 -42 -26 -75 -63 -155 -28 -60
-109 -182 -153 -231 -21 -23 -35 -41 -32 -41 8 0 -71 -72 -139 -127 -55 -45
-263 -157 -314 -169 -3 0 -18 -6 -33 -12 -16 -7 -33 -9 -39 -6 -7 4 -8 2 -4
-5 5 -8 -2 -11 -21 -10 -26 1 -47 -2 -133 -19 -19 -4 -94 -7 -165 -6 -115 1
-144 5 -245 33 -63 18 -138 44 -168 57 -61 27 -62 27 -62 15 0 -9 156 -72 225
-91 66 -18 225 -39 298 -40 76 0 249 24 317 44 73 22 184 68 192 80 5 6 8 7 8
1 0 -7 3 -7 8 0 4 6 25 19 47 30 51 26 145 95 145 107 0 5 4 7 8 4 16 -10 252
251 252 279 0 3 11 24 25 46 55 86 135 328 122 363 -3 8 -1 16 4 18 15 5 21
220 8 318 -12 96 -67 300 -81 300 -5 0 -7 4 -4 8 4 8 -50 122 -63 132 -3 3
-11 16 -18 30 -37 87 -267 331 -295 314 -6 -4 -8 -3 -5 3 9 14 -89 77 -104 67
-7 -4 -9 -3 -5 4 8 13 -112 72 -220 107 -155 51 -362 66 -529 40z"/>
<path d="M1105 2195 c-5 -1 -36 -8 -67 -15 -32 -7 -55 -17 -52 -21 3 -5 -2 -6
-10 -3 -13 5 -73 -20 -86 -35 -3 -3 -18 -13 -35 -21 -78 -39 -227 -235 -211
-277 3 -8 2 -11 -3 -8 -10 5 -15 -7 -26 -61 -5 -28 -12 -33 -68 -48 -182 -51
-328 -194 -393 -386 -28 -83 -26 -253 4 -340 62 -181 202 -319 375 -370 l73
-22 12 -54 c18 -88 70 -182 142 -255 136 -138 313 -199 497 -170 74 11 193 56
193 73 0 5 4 7 8 4 14 -8 119 81 160 136 62 83 112 194 112 246 0 13 18 24 68
40 144 46 243 121 321 241 145 226 112 520 -81 712 -70 70 -170 128 -259 149
-44 11 -46 13 -58 62 -28 109 -115 239 -202 304 -57 42 -99 65 -110 58 -7 -4
-10 -3 -6 3 17 27 -239 77 -298 58z m85 -459 c0 -2 -8 -10 -17 -17 -16 -13
-17 -12 -4 4 13 16 21 21 21 13z"/>
<path d="M32 1015 c0 -16 2 -22 5 -12 2 9 2 23 0 30 -3 6 -5 -1 -5 -18z"/>
<path d="M420 306 c0 -2 8 -10 18 -17 15 -13 16 -12 3 4 -13 16 -21 21 -21 13z"/>
<path d="M463 260 c2 -8 8 -15 13 -15 18 -1 54 -26 49 -35 -3 -5 0 -12 6 -16
8 -5 9 -3 4 6 -6 10 -4 12 8 7 10 -3 17 -5 17 -3 0 7 -80 56 -80 49 0 -5 -5
-1 -11 7 -9 13 -10 13 -6 0z"/>
<path d="M561 191 c-9 -6 -10 -11 -2 -15 6 -4 11 -2 11 4 0 6 11 0 24 -14 13
-15 28 -26 35 -26 6 0 3 8 -6 18 -10 10 -20 17 -22 15 -2 -1 -9 4 -15 12 -7 9
-16 12 -25 6z"/>
</g>
</svg>
